<?xml version="1.0" standalone="no"?>
<!-- Generator: OCAD Version 10.3.0 -->
<!DOCTYPE svg PUBLIC "-//W3C//DTD SVG 20010904//EN"
"http://www.w3.org/TR/2001/REC-SVG-20010904/DTD/svg10.dtd" [
<!ENTITY stR "stroke-linejoin:round;stroke-linecap:round">
<!ENTITY stB "stroke-linejoin:bevel">
]>
<svg id="mainMap" width="4.0840cm" height="3.9390cm" viewBox="0 0 40.8400 39.3900" style="fill:none;stroke-width:0;fill-rule:evenodd" xmlns:xlink="http://www.w3.org/1999/xlink" xmlns="http://www.w3.org/2000/svg" >
<desc>Map</desc>
<g id="scaleTransform" transform="scale(1.00000000)">
<g id="mainMapContent">
<!-- map fill color -->
<rect id="mapBg" x="-100%" y="-100%" width="200%" height="200%" fill="white" />
<g>
<clipPath id="Clip" fill="none" stroke="none">
<rect x="0" y="0" width="40.8400" height="39.3900" fill="none" />
</clipPath>
<g clip-path="url(#Clip)">
<g opacity="1.00">
</g>
<g opacity="1.00">
</g>
<g opacity="1.00">
</g>
<g opacity="1.00">
</g>
<g opacity="1.00">
</g>
<g opacity="1.00">
</g>
<g opacity="1.00">
</g>
<g opacity="1.00">
</g>
<g opacity="1.00">
</g>
<g opacity="1.00">
<g id="1.7 line 24" >
<g stroke="rgb(0,161,199)">
<g stroke-width="1.00"
style="&stB;"
>
<path 
d="M12.69,9.81
L17.15,5.84
L17.15,5.84
L19.47,8.48
" />
</g>
<g stroke-width="1.00"
style="&stB;"
>
<path 
d="M18.35,6.72
L22.99,2.61
L22.99,2.61
L30.06,10.72
" />
</g>
<g stroke-width="1.00"
style="&stB;"
>
<path 
d="M11.89,28.58
L18.55,36.15
L18.55,36.15
L29.18,27.26
" />
</g>
</g>
</g>
</g>
<g opacity="1.00">
</g>
<g opacity="1.00">
</g>
<g opacity="1.00">
</g>
<g opacity="1.00">
<g id="1.6 line 20" >
<g stroke="rgb(0,163,61)">
<g stroke-width="1.00"
style="&stB;"
>
<path 
d="M9.08,12.69
L2.98,18.01
L2.98,18.01
L8.60,24.72
" />
</g>
<g stroke-width="1.00"
style="&stB;"
>
<path 
d="M32.69,13.63
L37.99,19.84
L37.99,19.84
L32.44,24.67
" />
</g>
</g>
</g>
</g>
<g opacity="1.00">
</g>
<g opacity="1.00">
</g>
<g opacity="1.00">
</g>
<g opacity="1.00">
</g>
<g opacity="1.00">
</g>
<g opacity="1.00">
</g>
<g opacity="1.00">
</g>
<g opacity="1.00">
</g>
<g opacity="1.00">
</g>
<g opacity="1.00">
</g>
<g opacity="1.00">
</g>
<g opacity="1.00">
</g>
<g opacity="1.00">
</g>
<g opacity="1.00">
</g>
<g opacity="1.00">
</g>
<g opacity="1.00">
</g>
<g opacity="1.00">
<g id="1.4 BLACK 3" >
<g stroke="rgb(102,102,102)">
<g fill="rgb(102,102,102)" >
<path 
d="M12.02,10.71
C11.58,11.02 11.48,11.63 11.79,12.07
C12.09,12.50 12.71,12.61 13.14,12.31
C13.57,12.00 13.68,11.39 13.37,10.95
C13.06,10.51 12.45,10.41 12.02,10.71
" />
</g>
<g fill="rgb(102,102,102)" >
<path 
d="M11.68,21.94
C11.64,22.17 11.58,22.31 11.46,22.39
C11.18,22.58 10.97,22.61 10.67,22.67
C10.36,22.73 10.06,22.71 9.79,22.73
C9.79,23.03 9.80,23.51 9.80,23.68
C10.26,23.69 10.50,23.70 11.03,23.65
C11.59,23.61 12.11,23.49 12.59,23.24
C12.95,23.04 13.02,22.91 13.19,22.63
C13.25,22.52 13.38,22.21 13.40,21.93
L13.40,13.34 
11.68,13.34 
11.68,21.93 
" />
</g>
<g fill="rgb(102,102,102)" >
<path 
d="M17.81,16.45
C17.96,16.05 18.14,15.76 18.42,15.48
C18.78,15.14 18.98,15.00 19.44,14.80
C20.06,14.56 20.43,14.59 21.06,14.67
C21.45,14.73 21.65,14.82 21.92,15.07
C22.26,15.39 22.33,15.46 22.46,15.90
C22.48,16.06 22.52,16.29 22.54,16.48
L22.54,23.21 
24.55,23.21 
24.55,16.70 
24.56,16.51 
C24.67,16.14 24.71,16.00 25.06,15.58
C25.46,15.11 25.84,14.94 26.52,14.78
C26.95,14.70 27.38,14.65 27.83,14.69
C28.39,14.75 28.57,14.83 28.89,15.10
C29.28,15.45 29.28,15.76 29.30,16.34
L29.32,23.29 
31.33,23.29 
31.32,16.00 
31.32,15.97 
C31.28,15.51 31.25,15.19 31.06,14.83
C30.84,14.48 30.79,14.35 30.52,14.13
C30.29,13.94 30.08,13.77 29.84,13.65
C29.10,13.32 28.87,13.27 28.36,13.22
C28.15,13.20 27.86,13.19 27.49,13.22
C27.09,13.24 26.83,13.29 26.48,13.40
C25.91,13.58 25.66,13.69 25.22,13.95
C24.88,14.18 24.75,14.35 24.46,14.64
C24.31,14.79 24.26,14.86 24.20,14.90
C24.18,14.84 24.12,14.75 24.10,14.68
C23.90,14.25 23.45,13.89 23.02,13.68
C22.52,13.46 22.17,13.33 21.56,13.28
C20.80,13.22 20.57,13.24 19.96,13.36
C19.34,13.48 19.12,13.62 18.64,13.84
C18.23,14.05 18.08,14.17 17.80,14.44
L17.80,13.45 
15.70,13.45 
15.70,23.32 
17.78,23.32 
17.80,16.54 
" />
</g>
</g>
</g>
<g id="1.2 txt2 3" >
<g stroke="rgb(102,102,102)">
<g fill="rgb(102,102,102)" >
<path 
d="M10.36,26.30
9.82,24.28 
10.09,24.28 
10.40,25.61 
C10.43,25.75 10.46,25.89 10.49,26.02
C10.54,25.81 10.57,25.68 10.58,25.65
L10.96,24.28 
11.28,24.28 
11.57,25.31 
C11.65,25.56 11.70,25.80 11.73,26.02
C11.76,25.89 11.79,25.75 11.83,25.58
L12.15,24.28 
12.42,24.28 
11.86,26.30 
11.61,26.30 
11.18,24.77 
C11.14,24.64 11.12,24.56 11.12,24.53
C11.10,24.62 11.08,24.70 11.06,24.77
L10.63,26.30 
" />
</g>
<g fill="rgb(102,102,102)" >
<path 
d="M13.61,26.30
13.61,24.28 
15.07,24.28 
15.07,24.52 
13.88,24.52 
13.88,25.14 
15.00,25.14 
15.00,25.38 
13.88,25.38 
13.88,26.07 
15.12,26.07 
15.12,26.30 
" />
</g>
<g fill="rgb(102,102,102)" >
<path 
d="M16.42,26.30
16.42,24.28 
17.18,24.28 
C17.33,24.28 17.45,24.31 17.55,24.35
C17.64,24.39 17.71,24.45 17.77,24.53
C17.82,24.62 17.85,24.71 17.85,24.80
C17.85,24.89 17.82,24.97 17.78,25.05
C17.73,25.12 17.66,25.18 17.56,25.23
C17.69,25.27 17.78,25.33 17.84,25.41
C17.91,25.50 17.94,25.60 17.94,25.72
C17.94,25.81 17.92,25.90 17.88,25.98
C17.84,26.06 17.79,26.13 17.74,26.17
C17.68,26.22 17.60,26.25 17.51,26.27
C17.43,26.29 17.32,26.30 17.19,26.30
L16.42,26.30
M16.69,25.13
L17.12,25.13 
C17.24,25.13 17.33,25.13 17.38,25.11
C17.44,25.09 17.50,25.06 17.53,25.01
C17.57,24.96 17.58,24.90 17.58,24.83
C17.58,24.77 17.57,24.71 17.53,24.66
C17.50,24.61 17.46,24.57 17.40,24.55
C17.34,24.53 17.23,24.52 17.09,24.52
L16.69,24.52 
L16.69,25.13
M16.69,26.07
17.19,26.07 
C17.27,26.07 17.34,26.06 17.37,26.06
C17.43,26.05 17.48,26.03 17.52,26.00
C17.57,25.98 17.60,25.94 17.63,25.89
C17.65,25.84 17.67,25.78 17.67,25.72
C17.67,25.64 17.65,25.58 17.61,25.52
C17.57,25.47 17.52,25.43 17.45,25.41
C17.38,25.38 17.28,25.37 17.15,25.37
L16.69,25.37 
" />
</g>
<g fill="rgb(102,102,102)" >
<path 
d="M20.91,26.30
21.69,24.28 
21.97,24.28 
22.80,26.30 
22.50,26.30 
22.26,25.69 
21.42,25.69 
21.19,26.30 
L20.91,26.30
M21.49,25.48
22.18,25.48 
21.97,24.92 
C21.90,24.75 21.85,24.61 21.82,24.50
C21.80,24.63 21.76,24.76 21.71,24.88
" />
</g>
<g fill="rgb(102,102,102)" >
<path 
d="M23.95,26.30
23.95,24.28 
24.72,24.28 
C24.85,24.28 24.95,24.29 25.02,24.30
C25.12,24.32 25.21,24.35 25.27,24.40
C25.34,24.44 25.39,24.51 25.43,24.59
C25.48,24.68 25.50,24.77 25.50,24.87
C25.50,25.04 25.44,25.19 25.33,25.31
C25.22,25.42 25.02,25.48 24.74,25.48
L24.22,25.48 
24.22,26.30 
L23.95,26.30
M24.22,25.25
24.74,25.25 
C24.92,25.25 25.04,25.21 25.11,25.15
C25.18,25.08 25.22,24.99 25.22,24.88
C25.22,24.79 25.20,24.72 25.16,24.66
C25.11,24.60 25.06,24.56 24.99,24.54
C24.94,24.53 24.86,24.52 24.74,24.52
L24.22,24.52 
" />
</g>
<g fill="rgb(102,102,102)" >
<path 
d="M26.78,26.30
26.78,24.28 
27.54,24.28 
C27.67,24.28 27.77,24.29 27.85,24.30
C27.94,24.32 28.03,24.35 28.09,24.40
C28.16,24.44 28.22,24.51 28.26,24.59
C28.30,24.68 28.32,24.77 28.32,24.87
C28.32,25.04 28.26,25.19 28.15,25.31
C28.04,25.42 27.85,25.48 27.56,25.48
L27.04,25.48 
27.04,26.30 
L26.78,26.30
M27.04,25.25
27.57,25.25 
C27.74,25.25 27.86,25.21 27.93,25.15
C28.01,25.08 28.04,24.99 28.04,24.88
C28.04,24.79 28.02,24.72 27.98,24.66
C27.94,24.60 27.88,24.56 27.81,24.54
C27.76,24.53 27.68,24.52 27.56,24.52
L27.04,24.52 
" />
</g>
<g fill="rgb(102,102,102)" >
<path 
d="M29.51,25.66
29.76,25.63 
C29.77,25.73 29.80,25.82 29.84,25.88
C29.89,25.95 29.95,26.00 30.05,26.04
C30.14,26.08 30.24,26.10 30.36,26.10
C30.46,26.10 30.55,26.08 30.63,26.05
C30.70,26.02 30.76,25.98 30.80,25.93
C30.84,25.88 30.86,25.82 30.86,25.76
C30.86,25.69 30.84,25.64 30.80,25.59
C30.77,25.54 30.71,25.50 30.62,25.47
C30.57,25.45 30.45,25.42 30.26,25.37
C30.08,25.33 29.95,25.29 29.87,25.25
C29.77,25.20 29.70,25.13 29.66,25.06
C29.61,24.98 29.58,24.90 29.58,24.81
C29.58,24.71 29.61,24.61 29.67,24.52
C29.73,24.43 29.81,24.37 29.93,24.32
C30.04,24.27 30.16,24.25 30.30,24.25
C30.45,24.25 30.58,24.27 30.69,24.32
C30.81,24.37 30.89,24.44 30.96,24.54
C31.02,24.63 31.05,24.74 31.06,24.85
L30.80,24.87 
C30.78,24.75 30.74,24.65 30.66,24.58
C30.58,24.52 30.46,24.49 30.31,24.49
C30.15,24.49 30.03,24.52 29.95,24.57
C29.88,24.63 29.84,24.71 29.84,24.79
C29.84,24.86 29.87,24.92 29.92,24.97
C29.97,25.02 30.11,25.06 30.32,25.11
C30.54,25.16 30.69,25.20 30.77,25.24
C30.89,25.30 30.98,25.36 31.03,25.45
C31.09,25.53 31.12,25.63 31.12,25.73
C31.12,25.84 31.08,25.94 31.02,26.04
C30.96,26.13 30.87,26.21 30.76,26.26
C30.64,26.31 30.51,26.34 30.37,26.34
C30.19,26.34 30.03,26.31 29.91,26.26
C29.79,26.21 29.69,26.13 29.62,26.02
C29.55,25.91 29.51,25.79 29.51,25.66
" />
</g>
</g>
</g>
</g>
<g opacity="1.00">
</g>
<g opacity="1.00">
</g>
<g opacity="1.00">
</g>
</g>
</g>
</g>
</g>
</svg>
