<?xml version="1.0" encoding="iso-8859-1"?>
<!-- Generator: Adobe Illustrator 18.0.0, SVG Export Plug-In . SVG Version: 6.00 Build 0)  -->
<!DOCTYPE svg PUBLIC "-//W3C//DTD SVG 1.1//EN" "http://www.w3.org/Graphics/SVG/1.1/DTD/svg11.dtd">
<svg xmlns="http://www.w3.org/2000/svg" xmlns:xlink="http://www.w3.org/1999/xlink" version="1.1" id="Capa_1" x="0px" y="0px" viewBox="0 0 455.953 455.953" style="enable-background:new 0 0 455.953 455.953;" xml:space="preserve" width="512px" height="512px">
<g>
	<path d="M403.476,0h-191c-4.143,0-7.5,3.358-7.5,7.5v247.685c-41.737,2.281-80.468,12.707-109.721,29.632   c-32.423,18.759-50.279,43.802-50.279,70.515c0,27.739,19.066,53.46,53.688,72.424c33.194,18.182,77.165,28.196,123.813,28.196   s90.618-10.013,123.812-28.196c34.622-18.964,53.688-44.685,53.688-72.424c0-21.454-11.433-41.82-33.063-58.896   c-3.251-2.566-7.966-2.012-10.534,1.239c-2.566,3.251-2.012,7.967,1.239,10.534c17.897,14.13,27.357,30.425,27.357,47.124   c0,21.236-15.179,41.577-42.832,57.542l-106.24-59.869c5.249-7.876,8.068-17.121,8.068-26.8v-55.736   c25.941,1.846,50.789,7.044,72.289,15.177c0.873,0.331,1.77,0.487,2.652,0.487c3.028,0,5.881-1.848,7.016-4.848   c1.466-3.874-0.486-8.203-4.361-9.669c-23.138-8.753-49.831-14.304-77.596-16.185V122h159.503c4.143,0,7.5-3.358,7.5-7.5V7.5   C410.976,3.358,407.619,0,403.476,0z M219.976,15h8.997v311.206c0,5.991-1.563,11.742-4.499,16.787   c-2.935-5.045-4.498-10.795-4.498-16.787V15z M105.871,414.601c-29.596-16.211-45.895-37.26-45.895-59.268   c0-21.135,15.196-41.567,42.791-57.532c27.062-15.657,63.112-25.359,102.209-27.597v56.002c0,12.946,5.041,25.116,14.194,34.27   c0.495,0.495,1.622,1.231,1.622,1.231l105.253,59.313c-29.155,12.912-65.324,19.932-103.569,19.932   C178.304,440.953,136.893,431.594,105.871,414.601z M395.976,107H243.973V15h152.003V107z" fill="#FFFFFF"/>
	<path d="M343.779,281.325c-2.952-1.155-6.352-0.44-8.479,1.948c-2.199,2.469-2.49,6.197-0.729,8.989   c1.703,2.7,5.058,4.045,8.156,3.265c2.984-0.751,5.23-3.308,5.621-6.355C348.773,285.858,346.839,282.618,343.779,281.325   C343.319,281.145,344.229,281.515,343.779,281.325z" fill="#FFFFFF"/>
</g>
<g>
</g>
<g>
</g>
<g>
</g>
<g>
</g>
<g>
</g>
<g>
</g>
<g>
</g>
<g>
</g>
<g>
</g>
<g>
</g>
<g>
</g>
<g>
</g>
<g>
</g>
<g>
</g>
<g>
</g>
</svg>
