<?xml version="1.0" encoding="iso-8859-1"?>
<!-- Generator: Adobe Illustrator 18.0.0, SVG Export Plug-In . SVG Version: 6.00 Build 0)  -->
<!DOCTYPE svg PUBLIC "-//W3C//DTD SVG 1.1//EN" "http://www.w3.org/Graphics/SVG/1.1/DTD/svg11.dtd">
<svg xmlns="http://www.w3.org/2000/svg" xmlns:xlink="http://www.w3.org/1999/xlink" version="1.1" id="Capa_1" x="0px" y="0px" viewBox="0 0 433.479 433.479" style="enable-background:new 0 0 433.479 433.479;" xml:space="preserve" width="512px" height="512px">
<g>
	<path d="M293.343,171.329c-1.879-2.75-5.408-4.009-8.592-2.951c-3.037,1.009-5.144,3.903-5.148,7.111   c-0.008,6.475,8.022,9.889,12.689,5.417C294.888,178.418,295.32,174.326,293.343,171.329   C293.062,170.918,293.613,171.739,293.343,171.329z" fill="#FFFFFF"/>
	<path d="M394.722,215.258l-32.998-44.248c-1.416-1.898-3.645-3.017-6.013-3.017h-45.408c-4.143,0-7.5,3.358-7.5,7.5   s3.357,7.5,7.5,7.5h41.646l27.405,36.748l-27.405,36.748H150.222v-73.496h112.981c4.143,0,7.5-3.358,7.5-7.5s-3.357-7.5-7.5-7.5   H236.24v-22.498h54.519c4.143,0,7.5-3.358,7.5-7.5V49.5c0-4.142-3.357-7.5-7.5-7.5H236.24V7.5c0-4.142-3.357-7.5-7.5-7.5h-24   c-4.143,0-7.5,3.358-7.5,7.5V42H77.769c-2.368,0-4.597,1.118-6.012,3.016L38.759,89.264c-1.984,2.66-1.984,6.308,0,8.968   l32.999,44.248c1.415,1.898,3.644,3.016,6.012,3.016H197.24v22.498h-54.519c-4.143,0-7.5,3.358-7.5,7.5v88.496   c0,4.142,3.357,7.5,7.5,7.5h54.519v154.49c0,4.142,3.357,7.5,7.5,7.5h24c4.143,0,7.5-3.358,7.5-7.5v-154.49h119.471   c2.368,0,4.597-1.118,6.013-3.016l32.998-44.248C396.705,221.565,396.705,217.918,394.722,215.258z M212.24,15h9v27h-9V15z    M54.127,93.748L81.532,57h201.727v73.496H81.532L54.127,93.748z M212.24,145.496h9v22.498h-9V145.496z M221.24,418.479h-9v-146.99   h9V418.479z" fill="#FFFFFF"/>
</g>
<g>
</g>
<g>
</g>
<g>
</g>
<g>
</g>
<g>
</g>
<g>
</g>
<g>
</g>
<g>
</g>
<g>
</g>
<g>
</g>
<g>
</g>
<g>
</g>
<g>
</g>
<g>
</g>
<g>
</g>
</svg>
